<mxfile host="app.diagrams.net" modified="2021-03-26T07:26:50.555Z" agent="5.0 (X11)" etag="Jo4-z1i227rQR0edG1kt" version="14.5.1" type="github">
  <diagram id="5YsEo3V4YOLxfJX5qnM3" name="Page-1">
    <mxGraphModel dx="1350" dy="804" grid="1" gridSize="10" guides="1" tooltips="1" connect="1" arrows="1" fold="1" page="1" pageScale="1" pageWidth="850" pageHeight="1100" math="0" shadow="0">
      <root>
        <mxCell id="0" />
        <mxCell id="1" parent="0" />
        <mxCell id="Xof1aFgPI4b9zUl3U5y1-1" value="" style="rounded=0;whiteSpace=wrap;html=1;" vertex="1" parent="1">
          <mxGeometry x="310" y="160" width="260" height="190" as="geometry" />
        </mxCell>
        <mxCell id="Xof1aFgPI4b9zUl3U5y1-2" value="Header Files" style="rounded=0;whiteSpace=wrap;html=1;" vertex="1" parent="1">
          <mxGeometry x="330" y="190" width="210" height="30" as="geometry" />
        </mxCell>
        <mxCell id="Xof1aFgPI4b9zUl3U5y1-3" value="Setup the configuration information" style="rounded=0;whiteSpace=wrap;html=1;" vertex="1" parent="1">
          <mxGeometry x="330" y="240" width="210" height="30" as="geometry" />
        </mxCell>
        <mxCell id="Xof1aFgPI4b9zUl3U5y1-4" value="Run the Server until stopped by an keyboard Interrupt (Ctrl+C)" style="rounded=0;whiteSpace=wrap;html=1;" vertex="1" parent="1">
          <mxGeometry x="330" y="290" width="210" height="40" as="geometry" />
        </mxCell>
      </root>
    </mxGraphModel>
  </diagram>
</mxfile>
